<?xml version="1.0" encoding="utf-8" standalone="no"?>
<!DOCTYPE svg PUBLIC "-//W3C//DTD SVG 1.1//EN"
  "http://www.w3.org/Graphics/SVG/1.1/DTD/svg11.dtd">
<svg xmlns:xlink="http://www.w3.org/1999/xlink" width="792pt" height="489.6pt" viewBox="0 0 792 489.6" xmlns="http://www.w3.org/2000/svg" version="1.1">
 <metadata>
  <rdf:RDF xmlns:dc="http://purl.org/dc/elements/1.1/" xmlns:cc="http://creativecommons.org/ns#" xmlns:rdf="http://www.w3.org/1999/02/22-rdf-syntax-ns#">
   <cc:Work>
    <dc:type rdf:resource="http://purl.org/dc/dcmitype/StillImage"/>
    <dc:date>2026-09-15T08:29:16.736349</dc:date>
    <dc:format>image/svg+xml</dc:format>
    <dc:creator>
     <cc:Agent>
      <dc:title>Matplotlib v3.10.6, https://matplotlib.org/</dc:title>
     </cc:Agent>
    </dc:creator>
   </cc:Work>
  </rdf:RDF>
 </metadata>
 <defs>
  <style type="text/css">*{stroke-linejoin: round; stroke-linecap: butt}</style>
 </defs>
 <g id="figure_1">
  <g id="patch_1">
   <path d="M 0 489.6
L 792 489.6
L 792 0
L 0 0
z
" style="fill: #ffffff"/>
  </g>
  <g id="axes_1">
   <g id="patch_2">
    <path d="M 71.28 180.487111
L 282.321916 180.487111
L 282.321916 29.376
L 71.28 29.376
z
" style="fill: #ffffff"/>
   </g>
   <g id="matplotlib.axis_1">
    <g id="xtick_1">
     <g id="line2d_1">
      <defs>
       <path id="me727ba9f2e" d="M 0 0
L 0 3.5
" style="stroke: #000000; stroke-width: 0.8"/>
      </defs>
      <g>
       <use xlink:href="#me727ba9f2e" x="108.280855" y="180.487111" style="stroke: #000000; stroke-width: 0.8"/>
      </g>
     </g>
     <g id="text_1">
      <text style="font-size: 10px; font-family: 'Microsoft YaHei', 'DejaVu Sans', sans-serif; text-anchor: middle" x="108.280855" y="195.480861" transform="rotate(-0 108.280855 195.480861)">2</text>
     </g>
    </g>
    <g id="xtick_2">
     <g id="line2d_2">
      <g>
       <use xlink:href="#me727ba9f2e" x="163.096938" y="180.487111" style="stroke: #000000; stroke-width: 0.8"/>
      </g>
     </g>
     <g id="text_2">
      <text style="font-size: 10px; font-family: 'Microsoft YaHei', 'DejaVu Sans', sans-serif; text-anchor: middle" x="163.096938" y="195.480861" transform="rotate(-0 163.096938 195.480861)">4</text>
     </g>
    </g>
    <g id="xtick_3">
     <g id="line2d_3">
      <g>
       <use xlink:href="#me727ba9f2e" x="217.91302" y="180.487111" style="stroke: #000000; stroke-width: 0.8"/>
      </g>
     </g>
     <g id="text_3">
      <text style="font-size: 10px; font-family: 'Microsoft YaHei', 'DejaVu Sans', sans-serif; text-anchor: middle" x="217.91302" y="195.480861" transform="rotate(-0 217.91302 195.480861)">6</text>
     </g>
    </g>
    <g id="xtick_4">
     <g id="line2d_4">
      <g>
       <use xlink:href="#me727ba9f2e" x="272.729102" y="180.487111" style="stroke: #000000; stroke-width: 0.8"/>
      </g>
     </g>
     <g id="text_4">
      <text style="font-size: 10px; font-family: 'Microsoft YaHei', 'DejaVu Sans', sans-serif; text-anchor: middle" x="272.729102" y="195.480861" transform="rotate(-0 272.729102 195.480861)">8</text>
     </g>
    </g>
    <g id="text_5">
     <text style="font-size: 10px; font-family: 'Microsoft YaHei', 'DejaVu Sans', sans-serif; text-anchor: middle" x="176.800958" y="209.960549" transform="rotate(-0 176.800958 209.960549)">图最短距离（步数）</text>
    </g>
   </g>
   <g id="matplotlib.axis_2">
    <g id="ytick_1">
     <g id="line2d_5">
      <path d="M 71.28 172.533895
L 282.321916 172.533895
" clip-path="url(#pa7670d76a2)" style="fill: none; stroke: #eeeeee; stroke-width: 0.7; stroke-linecap: square"/>
     </g>
     <g id="line2d_6">
      <defs>
       <path id="ma342f3aa1d" d="M 0 0
L -3.5 0
" style="stroke: #000000; stroke-width: 0.8"/>
      </defs>
      <g>
       <use xlink:href="#ma342f3aa1d" x="71.28" y="172.533895" style="stroke: #000000; stroke-width: 0.8"/>
      </g>
     </g>
     <g id="text_6">
      <text style="font-size: 10px; font-family: 'Microsoft YaHei', 'DejaVu Sans', sans-serif; text-anchor: end" x="64.28" y="176.53077" transform="rotate(-0 64.28 176.53077)">1</text>
     </g>
    </g>
    <g id="ytick_2">
     <g id="line2d_7">
      <path d="M 71.28 132.767813
L 282.321916 132.767813
" clip-path="url(#pa7670d76a2)" style="fill: none; stroke: #eeeeee; stroke-width: 0.7; stroke-linecap: square"/>
     </g>
     <g id="line2d_8">
      <g>
       <use xlink:href="#ma342f3aa1d" x="71.28" y="132.767813" style="stroke: #000000; stroke-width: 0.8"/>
      </g>
     </g>
     <g id="text_7">
      <text style="font-size: 10px; font-family: 'Microsoft YaHei', 'DejaVu Sans', sans-serif; text-anchor: end" x="64.28" y="136.764688" transform="rotate(-0 64.28 136.764688)">2</text>
     </g>
    </g>
    <g id="ytick_3">
     <g id="line2d_9">
      <path d="M 71.28 93.001731
L 282.321916 93.001731
" clip-path="url(#pa7670d76a2)" style="fill: none; stroke: #eeeeee; stroke-width: 0.7; stroke-linecap: square"/>
     </g>
     <g id="line2d_10">
      <g>
       <use xlink:href="#ma342f3aa1d" x="71.28" y="93.001731" style="stroke: #000000; stroke-width: 0.8"/>
      </g>
     </g>
     <g id="text_8">
      <text style="font-size: 10px; font-family: 'Microsoft YaHei', 'DejaVu Sans', sans-serif; text-anchor: end" x="64.28" y="96.998606" transform="rotate(-0 64.28 96.998606)">3</text>
     </g>
    </g>
    <g id="ytick_4">
     <g id="line2d_11">
      <path d="M 71.28 53.235649
L 282.321916 53.235649
" clip-path="url(#pa7670d76a2)" style="fill: none; stroke: #eeeeee; stroke-width: 0.7; stroke-linecap: square"/>
     </g>
     <g id="line2d_12">
      <g>
       <use xlink:href="#ma342f3aa1d" x="71.28" y="53.235649" style="stroke: #000000; stroke-width: 0.8"/>
      </g>
     </g>
     <g id="text_9">
      <text style="font-size: 10px; font-family: 'Microsoft YaHei', 'DejaVu Sans', sans-serif; text-anchor: end" x="64.28" y="57.232524" transform="rotate(-0 64.28 57.232524)">4</text>
     </g>
    </g>
    <g id="text_10">
     <text style="font-size: 10px; font-family: 'Microsoft YaHei', 'DejaVu Sans', sans-serif; text-anchor: middle" x="51.93" y="104.931556" transform="rotate(-90 51.93 104.931556)">表示距离 / 一步邻居平均距离</text>
    </g>
   </g>
   <g id="line2d_13">
    <path d="M 80.872814 172.533895
L 108.280855 152.208003
L 135.688896 131.913479
L 163.096938 113.788985
L 190.504979 97.025471
L 217.91302 83.382621
L 245.321061 67.07161
L 272.729102 47.154184
" clip-path="url(#pa7670d76a2)" style="fill: none; stroke-dasharray: 2.1,3.465; stroke-dashoffset: 0; stroke: #7c9db5; stroke-width: 2.1"/>
   </g>
   <g id="line2d_14">
    <path d="M 80.872814 172.533895
L 108.280855 151.752343
L 135.688896 130.420137
L 163.096938 111.051444
L 190.504979 92.852495
L 217.91302 77.82788
L 245.321061 67.716155
L 272.729102 59.387662
" clip-path="url(#pa7670d76a2)" style="fill: none; stroke: #265e83; stroke-width: 2.1; stroke-linecap: square"/>
   </g>
   <g id="line2d_15">
    <path d="M 80.872814 172.533895
L 108.280855 151.876322
L 135.688896 130.497521
L 163.096938 111.505546
L 190.504979 93.823389
L 217.91302 79.780546
L 245.321061 69.087908
L 272.729102 59.500421
" clip-path="url(#pa7670d76a2)" style="fill: none; stroke-dasharray: 7.77,3.36; stroke-dashoffset: 0; stroke: #329592; stroke-width: 2.1"/>
   </g>
   <g id="line2d_16">
    <path d="M 80.872814 172.533895
L 108.280855 159.945503
L 135.688896 148.178037
L 163.096938 137.369424
L 190.504979 126.910278
L 217.91302 117.108243
L 245.321061 109.102199
L 272.729102 102.416925
" clip-path="url(#pa7670d76a2)" style="fill: none; stroke-dasharray: 13.44,3.36,2.1,3.36; stroke-dashoffset: 0; stroke: #b87543; stroke-width: 2.1"/>
   </g>
   <g id="line2d_17">
    <path d="M 80.872814 172.533895
L 108.280855 172.610334
L 135.688896 172.622834
L 163.096938 172.539165
L 190.504979 172.552901
L 217.91302 172.334261
L 245.321061 172.129195
L 272.729102 171.79696
" clip-path="url(#pa7670d76a2)" style="fill: none; stroke-dasharray: 5.6,4.2; stroke-dashoffset: 0; stroke: #888888; stroke-width: 1.4"/>
   </g>
   <g id="patch_3">
    <path d="M 71.28 180.487111
L 71.28 29.376
" style="fill: none; stroke: #000000; stroke-width: 0.8; stroke-linejoin: miter; stroke-linecap: square"/>
   </g>
   <g id="patch_4">
    <path d="M 71.28 180.487111
L 282.321916 180.487111
" style="fill: none; stroke: #000000; stroke-width: 0.8; stroke-linejoin: miter; stroke-linecap: square"/>
   </g>
   <g id="text_11">
    <text style="font-weight: 700; font-size: 12px; font-family: 'Microsoft YaHei', 'DejaVu Sans', sans-serif; text-anchor: start" x="43.844551" y="23.331556" transform="rotate(-0 43.844551 23.331556)">a</text>
   </g>
   <g id="text_12">
    <text style="font-size: 11px; font-family: 'Microsoft YaHei', 'DejaVu Sans', sans-serif; text-anchor: start" x="71.28" y="23.376" transform="rotate(-0 71.28 23.376)">原始图 · 32 节点</text>
   </g>
  </g>
  <g id="axes_2">
   <g id="patch_5">
    <path d="M 318.199042 180.487111
L 529.240958 180.487111
L 529.240958 29.376
L 318.199042 29.376
z
" style="fill: #ffffff"/>
   </g>
   <g id="matplotlib.axis_3">
    <g id="xtick_5">
     <g id="line2d_18">
      <g>
       <use xlink:href="#me727ba9f2e" x="327.791856" y="180.487111" style="stroke: #000000; stroke-width: 0.8"/>
      </g>
     </g>
     <g id="text_13">
      <text style="font-size: 10px; font-family: 'Microsoft YaHei', 'DejaVu Sans', sans-serif; text-anchor: middle" x="327.791856" y="195.480861" transform="rotate(-0 327.791856 195.480861)">1</text>
     </g>
    </g>
    <g id="xtick_6">
     <g id="line2d_19">
      <g>
       <use xlink:href="#me727ba9f2e" x="375.755928" y="180.487111" style="stroke: #000000; stroke-width: 0.8"/>
      </g>
     </g>
     <g id="text_14">
      <text style="font-size: 10px; font-family: 'Microsoft YaHei', 'DejaVu Sans', sans-serif; text-anchor: middle" x="375.755928" y="195.480861" transform="rotate(-0 375.755928 195.480861)">2</text>
     </g>
    </g>
    <g id="xtick_7">
     <g id="line2d_20">
      <g>
       <use xlink:href="#me727ba9f2e" x="423.72" y="180.487111" style="stroke: #000000; stroke-width: 0.8"/>
      </g>
     </g>
     <g id="text_15">
      <text style="font-size: 10px; font-family: 'Microsoft YaHei', 'DejaVu Sans', sans-serif; text-anchor: middle" x="423.72" y="195.480861" transform="rotate(-0 423.72 195.480861)">3</text>
     </g>
    </g>
    <g id="xtick_8">
     <g id="line2d_21">
      <g>
       <use xlink:href="#me727ba9f2e" x="471.684072" y="180.487111" style="stroke: #000000; stroke-width: 0.8"/>
      </g>
     </g>
     <g id="text_16">
      <text style="font-size: 10px; font-family: 'Microsoft YaHei', 'DejaVu Sans', sans-serif; text-anchor: middle" x="471.684072" y="195.480861" transform="rotate(-0 471.684072 195.480861)">4</text>
     </g>
    </g>
    <g id="xtick_9">
     <g id="line2d_22">
      <g>
       <use xlink:href="#me727ba9f2e" x="519.648144" y="180.487111" style="stroke: #000000; stroke-width: 0.8"/>
      </g>
     </g>
     <g id="text_17">
      <text style="font-size: 10px; font-family: 'Microsoft YaHei', 'DejaVu Sans', sans-serif; text-anchor: middle" x="519.648144" y="195.480861" transform="rotate(-0 519.648144 195.480861)">5</text>
     </g>
    </g>
    <g id="text_18">
     <text style="font-size: 10px; font-family: 'Microsoft YaHei', 'DejaVu Sans', sans-serif; text-anchor: middle" x="423.72" y="209.960549" transform="rotate(-0 423.72 209.960549)">图最短距离（步数）</text>
    </g>
   </g>
   <g id="matplotlib.axis_4">
    <g id="ytick_5">
     <g id="line2d_23">
      <path d="M 318.199042 172.533895
L 529.240958 172.533895
" clip-path="url(#p0fe44217a4)" style="fill: none; stroke: #eeeeee; stroke-width: 0.7; stroke-linecap: square"/>
     </g>
     <g id="line2d_24">
      <g>
       <use xlink:href="#ma342f3aa1d" x="318.199042" y="172.533895" style="stroke: #000000; stroke-width: 0.8"/>
      </g>
     </g>
    </g>
    <g id="ytick_6">
     <g id="line2d_25">
      <path d="M 318.199042 132.767813
L 529.240958 132.767813
" clip-path="url(#p0fe44217a4)" style="fill: none; stroke: #eeeeee; stroke-width: 0.7; stroke-linecap: square"/>
     </g>
     <g id="line2d_26">
      <g>
       <use xlink:href="#ma342f3aa1d" x="318.199042" y="132.767813" style="stroke: #000000; stroke-width: 0.8"/>
      </g>
     </g>
    </g>
    <g id="ytick_7">
     <g id="line2d_27">
      <path d="M 318.199042 93.001731
L 529.240958 93.001731
" clip-path="url(#p0fe44217a4)" style="fill: none; stroke: #eeeeee; stroke-width: 0.7; stroke-linecap: square"/>
     </g>
     <g id="line2d_28">
      <g>
       <use xlink:href="#ma342f3aa1d" x="318.199042" y="93.001731" style="stroke: #000000; stroke-width: 0.8"/>
      </g>
     </g>
    </g>
    <g id="ytick_8">
     <g id="line2d_29">
      <path d="M 318.199042 53.235649
L 529.240958 53.235649
" clip-path="url(#p0fe44217a4)" style="fill: none; stroke: #eeeeee; stroke-width: 0.7; stroke-linecap: square"/>
     </g>
     <g id="line2d_30">
      <g>
       <use xlink:href="#ma342f3aa1d" x="318.199042" y="53.235649" style="stroke: #000000; stroke-width: 0.8"/>
      </g>
     </g>
    </g>
   </g>
   <g id="line2d_31">
    <path d="M 327.791856 172.533895
L 375.755928 155.072042
L 423.72 142.687525
L 471.684072 130.483137
L 519.648144 115.760719
" clip-path="url(#p0fe44217a4)" style="fill: none; stroke-dasharray: 2.1,3.465; stroke-dashoffset: 0; stroke: #7c9db5; stroke-width: 2.1"/>
   </g>
   <g id="line2d_32">
    <path d="M 327.791856 172.533895
L 375.755928 155.223311
L 423.72 142.932726
L 471.684072 130.645003
L 519.648144 116.06652
" clip-path="url(#p0fe44217a4)" style="fill: none; stroke: #265e83; stroke-width: 2.1; stroke-linecap: square"/>
   </g>
   <g id="line2d_33">
    <path d="M 327.791856 172.533895
L 375.755928 155.069093
L 423.72 142.639696
L 471.684072 130.180461
L 519.648144 115.151347
" clip-path="url(#p0fe44217a4)" style="fill: none; stroke-dasharray: 7.77,3.36; stroke-dashoffset: 0; stroke: #329592; stroke-width: 2.1"/>
   </g>
   <g id="line2d_34">
    <path d="M 327.791856 172.533895
L 375.755928 162.353859
L 423.72 155.276772
L 471.684072 148.105848
L 519.648144 139.079254
" clip-path="url(#p0fe44217a4)" style="fill: none; stroke-dasharray: 13.44,3.36,2.1,3.36; stroke-dashoffset: 0; stroke: #b87543; stroke-width: 2.1"/>
   </g>
   <g id="line2d_35">
    <path d="M 327.791856 172.533895
L 375.755928 172.640007
L 423.72 172.644377
L 471.684072 172.661007
L 519.648144 172.586312
" clip-path="url(#p0fe44217a4)" style="fill: none; stroke-dasharray: 5.6,4.2; stroke-dashoffset: 0; stroke: #888888; stroke-width: 1.4"/>
   </g>
   <g id="patch_6">
    <path d="M 318.199042 180.487111
L 318.199042 29.376
" style="fill: none; stroke: #000000; stroke-width: 0.8; stroke-linejoin: miter; stroke-linecap: square"/>
   </g>
   <g id="patch_7">
    <path d="M 318.199042 180.487111
L 529.240958 180.487111
" style="fill: none; stroke: #000000; stroke-width: 0.8; stroke-linejoin: miter; stroke-linecap: square"/>
   </g>
   <g id="text_19">
    <text style="font-weight: 700; font-size: 12px; font-family: 'Microsoft YaHei', 'DejaVu Sans', sans-serif; text-anchor: start" x="290.763593" y="23.331556" transform="rotate(-0 290.763593 23.331556)">b</text>
   </g>
   <g id="text_20">
    <text style="font-size: 11px; font-family: 'Microsoft YaHei', 'DejaVu Sans', sans-serif; text-anchor: start" x="318.199042" y="23.376" transform="rotate(-0 318.199042 23.376)">随机图 · 32 节点</text>
   </g>
  </g>
  <g id="axes_3">
   <g id="patch_8">
    <path d="M 565.118084 180.487111
L 776.16 180.487111
L 776.16 29.376
L 565.118084 29.376
z
" style="fill: #ffffff"/>
   </g>
   <g id="matplotlib.axis_5">
    <g id="xtick_10">
     <g id="line2d_36">
      <g>
       <use xlink:href="#me727ba9f2e" x="602.118939" y="180.487111" style="stroke: #000000; stroke-width: 0.8"/>
      </g>
     </g>
     <g id="text_21">
      <text style="font-size: 10px; font-family: 'Microsoft YaHei', 'DejaVu Sans', sans-serif; text-anchor: middle" x="602.118939" y="195.480861" transform="rotate(-0 602.118939 195.480861)">2</text>
     </g>
    </g>
    <g id="xtick_11">
     <g id="line2d_37">
      <g>
       <use xlink:href="#me727ba9f2e" x="656.935021" y="180.487111" style="stroke: #000000; stroke-width: 0.8"/>
      </g>
     </g>
     <g id="text_22">
      <text style="font-size: 10px; font-family: 'Microsoft YaHei', 'DejaVu Sans', sans-serif; text-anchor: middle" x="656.935021" y="195.480861" transform="rotate(-0 656.935021 195.480861)">4</text>
     </g>
    </g>
    <g id="xtick_12">
     <g id="line2d_38">
      <g>
       <use xlink:href="#me727ba9f2e" x="711.751104" y="180.487111" style="stroke: #000000; stroke-width: 0.8"/>
      </g>
     </g>
     <g id="text_23">
      <text style="font-size: 10px; font-family: 'Microsoft YaHei', 'DejaVu Sans', sans-serif; text-anchor: middle" x="711.751104" y="195.480861" transform="rotate(-0 711.751104 195.480861)">6</text>
     </g>
    </g>
    <g id="xtick_13">
     <g id="line2d_39">
      <g>
       <use xlink:href="#me727ba9f2e" x="766.567186" y="180.487111" style="stroke: #000000; stroke-width: 0.8"/>
      </g>
     </g>
     <g id="text_24">
      <text style="font-size: 10px; font-family: 'Microsoft YaHei', 'DejaVu Sans', sans-serif; text-anchor: middle" x="766.567186" y="195.480861" transform="rotate(-0 766.567186 195.480861)">8</text>
     </g>
    </g>
    <g id="text_25">
     <text style="font-size: 10px; font-family: 'Microsoft YaHei', 'DejaVu Sans', sans-serif; text-anchor: middle" x="670.639042" y="209.960549" transform="rotate(-0 670.639042 209.960549)">图最短距离（步数）</text>
    </g>
   </g>
   <g id="matplotlib.axis_6">
    <g id="ytick_9">
     <g id="line2d_40">
      <path d="M 565.118084 172.533895
L 776.16 172.533895
" clip-path="url(#p8680f54a26)" style="fill: none; stroke: #eeeeee; stroke-width: 0.7; stroke-linecap: square"/>
     </g>
     <g id="line2d_41">
      <g>
       <use xlink:href="#ma342f3aa1d" x="565.118084" y="172.533895" style="stroke: #000000; stroke-width: 0.8"/>
      </g>
     </g>
    </g>
    <g id="ytick_10">
     <g id="line2d_42">
      <path d="M 565.118084 132.767813
L 776.16 132.767813
" clip-path="url(#p8680f54a26)" style="fill: none; stroke: #eeeeee; stroke-width: 0.7; stroke-linecap: square"/>
     </g>
     <g id="line2d_43">
      <g>
       <use xlink:href="#ma342f3aa1d" x="565.118084" y="132.767813" style="stroke: #000000; stroke-width: 0.8"/>
      </g>
     </g>
    </g>
    <g id="ytick_11">
     <g id="line2d_44">
      <path d="M 565.118084 93.001731
L 776.16 93.001731
" clip-path="url(#p8680f54a26)" style="fill: none; stroke: #eeeeee; stroke-width: 0.7; stroke-linecap: square"/>
     </g>
     <g id="line2d_45">
      <g>
       <use xlink:href="#ma342f3aa1d" x="565.118084" y="93.001731" style="stroke: #000000; stroke-width: 0.8"/>
      </g>
     </g>
    </g>
    <g id="ytick_12">
     <g id="line2d_46">
      <path d="M 565.118084 53.235649
L 776.16 53.235649
" clip-path="url(#p8680f54a26)" style="fill: none; stroke: #eeeeee; stroke-width: 0.7; stroke-linecap: square"/>
     </g>
     <g id="line2d_47">
      <g>
       <use xlink:href="#ma342f3aa1d" x="565.118084" y="53.235649" style="stroke: #000000; stroke-width: 0.8"/>
      </g>
     </g>
    </g>
   </g>
   <g id="line2d_48">
    <path d="M 574.710898 172.533895
L 602.118939 154.271038
L 629.52698 142.280154
L 656.935021 132.549678
L 684.343062 123.25977
L 711.751104 112.767173
L 739.159145 99.893967
L 766.567186 90.367301
" clip-path="url(#p8680f54a26)" style="fill: none; stroke-dasharray: 2.1,3.465; stroke-dashoffset: 0; stroke: #7c9db5; stroke-width: 2.1"/>
   </g>
   <g id="line2d_49">
    <path d="M 574.710898 172.533895
L 602.118939 154.13057
L 629.52698 141.985125
L 656.935021 132.12088
L 684.343062 122.683243
L 711.751104 111.731416
L 739.159145 99.231042
L 766.567186 89.93075
" clip-path="url(#p8680f54a26)" style="fill: none; stroke: #265e83; stroke-width: 2.1; stroke-linecap: square"/>
   </g>
   <g id="line2d_50">
    <path d="M 574.710898 172.533895
L 602.118939 154.133558
L 629.52698 142.005973
L 656.935021 132.22743
L 684.343062 122.835542
L 711.751104 111.971297
L 739.159145 99.64391
L 766.567186 90.544547
" clip-path="url(#p8680f54a26)" style="fill: none; stroke-dasharray: 7.77,3.36; stroke-dashoffset: 0; stroke: #329592; stroke-width: 2.1"/>
   </g>
   <g id="line2d_51">
    <path d="M 574.710898 172.533895
L 602.118939 161.537273
L 629.52698 154.808835
L 656.935021 149.224239
L 684.343062 143.504657
L 711.751104 136.441056
L 739.159145 127.609457
L 766.567186 121.063832
" clip-path="url(#p8680f54a26)" style="fill: none; stroke-dasharray: 13.44,3.36,2.1,3.36; stroke-dashoffset: 0; stroke: #b87543; stroke-width: 2.1"/>
   </g>
   <g id="line2d_52">
    <path d="M 574.710898 172.533895
L 602.118939 172.582857
L 629.52698 172.646275
L 656.935021 172.648375
L 684.343062 172.627671
L 711.751104 172.675155
L 739.159145 172.7269
L 766.567186 172.638793
" clip-path="url(#p8680f54a26)" style="fill: none; stroke-dasharray: 5.6,4.2; stroke-dashoffset: 0; stroke: #888888; stroke-width: 1.4"/>
   </g>
   <g id="patch_9">
    <path d="M 565.118084 180.487111
L 565.118084 29.376
" style="fill: none; stroke: #000000; stroke-width: 0.8; stroke-linejoin: miter; stroke-linecap: square"/>
   </g>
   <g id="patch_10">
    <path d="M 565.118084 180.487111
L 776.16 180.487111
" style="fill: none; stroke: #000000; stroke-width: 0.8; stroke-linejoin: miter; stroke-linecap: square"/>
   </g>
   <g id="text_26">
    <text style="font-weight: 700; font-size: 12px; font-family: 'Microsoft YaHei', 'DejaVu Sans', sans-serif; text-anchor: start" x="537.682635" y="23.331556" transform="rotate(-0 537.682635 23.331556)">c</text>
   </g>
   <g id="text_27">
    <text style="font-size: 11px; font-family: 'Microsoft YaHei', 'DejaVu Sans', sans-serif; text-anchor: start" x="565.118084" y="23.376" transform="rotate(-0 565.118084 23.376)">随机图 · 64 节点</text>
   </g>
  </g>
  <g id="axes_4">
   <g id="patch_11">
    <path d="M 71.28 396.576
L 282.321916 396.576
L 282.321916 245.464889
L 71.28 245.464889
z
" style="fill: #ffffff"/>
   </g>
   <g id="matplotlib.axis_7">
    <g id="xtick_14">
     <g id="line2d_53">
      <g>
       <use xlink:href="#me727ba9f2e" x="104.85485" y="396.576" style="stroke: #000000; stroke-width: 0.8"/>
      </g>
     </g>
     <g id="text_28">
      <text style="font-size: 10px; font-family: 'Microsoft YaHei', 'DejaVu Sans', sans-serif; text-anchor: middle" x="104.85485" y="411.56975" transform="rotate(-0 104.85485 411.56975)">2</text>
     </g>
    </g>
    <g id="xtick_15">
     <g id="line2d_54">
      <g>
       <use xlink:href="#me727ba9f2e" x="152.818922" y="396.576" style="stroke: #000000; stroke-width: 0.8"/>
      </g>
     </g>
     <g id="text_29">
      <text style="font-size: 10px; font-family: 'Microsoft YaHei', 'DejaVu Sans', sans-serif; text-anchor: middle" x="152.818922" y="411.56975" transform="rotate(-0 152.818922 411.56975)">4</text>
     </g>
    </g>
    <g id="xtick_16">
     <g id="line2d_55">
      <g>
       <use xlink:href="#me727ba9f2e" x="200.782994" y="396.576" style="stroke: #000000; stroke-width: 0.8"/>
      </g>
     </g>
     <g id="text_30">
      <text style="font-size: 10px; font-family: 'Microsoft YaHei', 'DejaVu Sans', sans-serif; text-anchor: middle" x="200.782994" y="411.56975" transform="rotate(-0 200.782994 411.56975)">6</text>
     </g>
    </g>
    <g id="xtick_17">
     <g id="line2d_56">
      <g>
       <use xlink:href="#me727ba9f2e" x="248.747066" y="396.576" style="stroke: #000000; stroke-width: 0.8"/>
      </g>
     </g>
     <g id="text_31">
      <text style="font-size: 10px; font-family: 'Microsoft YaHei', 'DejaVu Sans', sans-serif; text-anchor: middle" x="248.747066" y="411.56975" transform="rotate(-0 248.747066 411.56975)">8</text>
     </g>
    </g>
    <g id="text_32">
     <text style="font-size: 10px; font-family: 'Microsoft YaHei', 'DejaVu Sans', sans-serif; text-anchor: middle" x="176.800958" y="426.049438" transform="rotate(-0 176.800958 426.049438)">图最短距离（步数）</text>
    </g>
   </g>
   <g id="matplotlib.axis_8">
    <g id="ytick_13">
     <g id="line2d_57">
      <path d="M 71.28 388.622784
L 282.321916 388.622784
" clip-path="url(#p1c0d2fc64c)" style="fill: none; stroke: #eeeeee; stroke-width: 0.7; stroke-linecap: square"/>
     </g>
     <g id="line2d_58">
      <g>
       <use xlink:href="#ma342f3aa1d" x="71.28" y="388.622784" style="stroke: #000000; stroke-width: 0.8"/>
      </g>
     </g>
     <g id="text_33">
      <text style="font-size: 10px; font-family: 'Microsoft YaHei', 'DejaVu Sans', sans-serif; text-anchor: end" x="64.28" y="392.619659" transform="rotate(-0 64.28 392.619659)">1</text>
     </g>
    </g>
    <g id="ytick_14">
     <g id="line2d_59">
      <path d="M 71.28 348.856702
L 282.321916 348.856702
" clip-path="url(#p1c0d2fc64c)" style="fill: none; stroke: #eeeeee; stroke-width: 0.7; stroke-linecap: square"/>
     </g>
     <g id="line2d_60">
      <g>
       <use xlink:href="#ma342f3aa1d" x="71.28" y="348.856702" style="stroke: #000000; stroke-width: 0.8"/>
      </g>
     </g>
     <g id="text_34">
      <text style="font-size: 10px; font-family: 'Microsoft YaHei', 'DejaVu Sans', sans-serif; text-anchor: end" x="64.28" y="352.853577" transform="rotate(-0 64.28 352.853577)">2</text>
     </g>
    </g>
    <g id="ytick_15">
     <g id="line2d_61">
      <path d="M 71.28 309.09062
L 282.321916 309.09062
" clip-path="url(#p1c0d2fc64c)" style="fill: none; stroke: #eeeeee; stroke-width: 0.7; stroke-linecap: square"/>
     </g>
     <g id="line2d_62">
      <g>
       <use xlink:href="#ma342f3aa1d" x="71.28" y="309.09062" style="stroke: #000000; stroke-width: 0.8"/>
      </g>
     </g>
     <g id="text_35">
      <text style="font-size: 10px; font-family: 'Microsoft YaHei', 'DejaVu Sans', sans-serif; text-anchor: end" x="64.28" y="313.087495" transform="rotate(-0 64.28 313.087495)">3</text>
     </g>
    </g>
    <g id="ytick_16">
     <g id="line2d_63">
      <path d="M 71.28 269.324538
L 282.321916 269.324538
" clip-path="url(#p1c0d2fc64c)" style="fill: none; stroke: #eeeeee; stroke-width: 0.7; stroke-linecap: square"/>
     </g>
     <g id="line2d_64">
      <g>
       <use xlink:href="#ma342f3aa1d" x="71.28" y="269.324538" style="stroke: #000000; stroke-width: 0.8"/>
      </g>
     </g>
     <g id="text_36">
      <text style="font-size: 10px; font-family: 'Microsoft YaHei', 'DejaVu Sans', sans-serif; text-anchor: end" x="64.28" y="273.321413" transform="rotate(-0 64.28 273.321413)">4</text>
     </g>
    </g>
    <g id="text_37">
     <text style="font-size: 10px; font-family: 'Microsoft YaHei', 'DejaVu Sans', sans-serif; text-anchor: middle" x="51.93" y="321.020444" transform="rotate(-90 51.93 321.020444)">表示距离 / 一步邻居平均距离</text>
    </g>
   </g>
   <g id="line2d_65">
    <path d="M 80.872814 388.622784
L 104.85485 370.68797
L 128.836886 360.421806
L 152.818922 353.777437
L 176.800958 347.22113
L 200.782994 339.223443
L 224.76503 327.788929
L 248.747066 314.524058
L 272.729102 304.777916
" clip-path="url(#p1c0d2fc64c)" style="fill: none; stroke-dasharray: 2.1,3.465; stroke-dashoffset: 0; stroke: #7c9db5; stroke-width: 2.1"/>
   </g>
   <g id="line2d_66">
    <path d="M 80.872814 388.622784
L 104.85485 370.656534
L 128.836886 360.406068
L 152.818922 353.747116
L 176.800958 347.191887
L 200.782994 339.19253
L 224.76503 327.994324
L 248.747066 314.229288
L 272.729102 303.09023
" clip-path="url(#p1c0d2fc64c)" style="fill: none; stroke: #265e83; stroke-width: 2.1; stroke-linecap: square"/>
   </g>
   <g id="line2d_67">
    <path d="M 80.872814 388.622784
L 104.85485 370.608036
L 128.836886 360.357014
L 152.818922 353.76713
L 176.800958 347.32724
L 200.782994 339.50445
L 224.76503 328.459257
L 248.747066 314.869891
L 272.729102 303.890974
" clip-path="url(#p1c0d2fc64c)" style="fill: none; stroke-dasharray: 7.77,3.36; stroke-dashoffset: 0; stroke: #329592; stroke-width: 2.1"/>
   </g>
   <g id="line2d_68">
    <path d="M 80.872814 388.622784
L 104.85485 377.854116
L 128.836886 372.243456
L 152.818922 368.633163
L 176.800958 364.691583
L 200.782994 359.49806
L 224.76503 351.867639
L 248.747066 342.580081
L 272.729102 334.674638
" clip-path="url(#p1c0d2fc64c)" style="fill: none; stroke-dasharray: 13.44,3.36,2.1,3.36; stroke-dashoffset: 0; stroke: #b87543; stroke-width: 2.1"/>
   </g>
   <g id="line2d_69">
    <path d="M 80.872814 388.622784
L 104.85485 388.640555
L 128.836886 388.6647
L 152.818922 388.659323
L 176.800958 388.670199
L 200.782994 388.690662
L 224.76503 388.715629
L 248.747066 388.777302
L 272.729102 388.851464
" clip-path="url(#p1c0d2fc64c)" style="fill: none; stroke-dasharray: 5.6,4.2; stroke-dashoffset: 0; stroke: #888888; stroke-width: 1.4"/>
   </g>
   <g id="patch_12">
    <path d="M 71.28 396.576
L 71.28 245.464889
" style="fill: none; stroke: #000000; stroke-width: 0.8; stroke-linejoin: miter; stroke-linecap: square"/>
   </g>
   <g id="patch_13">
    <path d="M 71.28 396.576
L 282.321916 396.576
" style="fill: none; stroke: #000000; stroke-width: 0.8; stroke-linejoin: miter; stroke-linecap: square"/>
   </g>
   <g id="text_38">
    <text style="font-weight: 700; font-size: 12px; font-family: 'Microsoft YaHei', 'DejaVu Sans', sans-serif; text-anchor: start" x="43.844551" y="239.420444" transform="rotate(-0 43.844551 239.420444)">d</text>
   </g>
   <g id="text_39">
    <text style="font-size: 11px; font-family: 'Microsoft YaHei', 'DejaVu Sans', sans-serif; text-anchor: start" x="71.28" y="239.464889" transform="rotate(-0 71.28 239.464889)">随机图 · 128 节点</text>
   </g>
  </g>
  <g id="axes_5">
   <g id="patch_14">
    <path d="M 318.199042 396.576
L 529.240958 396.576
L 529.240958 245.464889
L 318.199042 245.464889
z
" style="fill: #ffffff"/>
   </g>
   <g id="matplotlib.axis_9">
    <g id="xtick_18">
     <g id="line2d_70">
      <g>
       <use xlink:href="#me727ba9f2e" x="349.109222" y="396.576" style="stroke: #000000; stroke-width: 0.8"/>
      </g>
     </g>
     <g id="text_40">
      <text style="font-size: 10px; font-family: 'Microsoft YaHei', 'DejaVu Sans', sans-serif; text-anchor: middle" x="349.109222" y="411.56975" transform="rotate(-0 349.109222 411.56975)">2</text>
     </g>
    </g>
    <g id="xtick_19">
     <g id="line2d_71">
      <g>
       <use xlink:href="#me727ba9f2e" x="391.743952" y="396.576" style="stroke: #000000; stroke-width: 0.8"/>
      </g>
     </g>
     <g id="text_41">
      <text style="font-size: 10px; font-family: 'Microsoft YaHei', 'DejaVu Sans', sans-serif; text-anchor: middle" x="391.743952" y="411.56975" transform="rotate(-0 391.743952 411.56975)">4</text>
     </g>
    </g>
    <g id="xtick_20">
     <g id="line2d_72">
      <g>
       <use xlink:href="#me727ba9f2e" x="434.378683" y="396.576" style="stroke: #000000; stroke-width: 0.8"/>
      </g>
     </g>
     <g id="text_42">
      <text style="font-size: 10px; font-family: 'Microsoft YaHei', 'DejaVu Sans', sans-serif; text-anchor: middle" x="434.378683" y="411.56975" transform="rotate(-0 434.378683 411.56975)">6</text>
     </g>
    </g>
    <g id="xtick_21">
     <g id="line2d_73">
      <g>
       <use xlink:href="#me727ba9f2e" x="477.013413" y="396.576" style="stroke: #000000; stroke-width: 0.8"/>
      </g>
     </g>
     <g id="text_43">
      <text style="font-size: 10px; font-family: 'Microsoft YaHei', 'DejaVu Sans', sans-serif; text-anchor: middle" x="477.013413" y="411.56975" transform="rotate(-0 477.013413 411.56975)">8</text>
     </g>
    </g>
    <g id="xtick_22">
     <g id="line2d_74">
      <g>
       <use xlink:href="#me727ba9f2e" x="519.648144" y="396.576" style="stroke: #000000; stroke-width: 0.8"/>
      </g>
     </g>
     <g id="text_44">
      <text style="font-size: 10px; font-family: 'Microsoft YaHei', 'DejaVu Sans', sans-serif; text-anchor: middle" x="519.648144" y="411.56975" transform="rotate(-0 519.648144 411.56975)">10</text>
     </g>
    </g>
    <g id="text_45">
     <text style="font-size: 10px; font-family: 'Microsoft YaHei', 'DejaVu Sans', sans-serif; text-anchor: middle" x="423.72" y="426.049438" transform="rotate(-0 423.72 426.049438)">图最短距离（步数）</text>
    </g>
   </g>
   <g id="matplotlib.axis_10">
    <g id="ytick_17">
     <g id="line2d_75">
      <path d="M 318.199042 388.622784
L 529.240958 388.622784
" clip-path="url(#p081f7e11fc)" style="fill: none; stroke: #eeeeee; stroke-width: 0.7; stroke-linecap: square"/>
     </g>
     <g id="line2d_76">
      <g>
       <use xlink:href="#ma342f3aa1d" x="318.199042" y="388.622784" style="stroke: #000000; stroke-width: 0.8"/>
      </g>
     </g>
    </g>
    <g id="ytick_18">
     <g id="line2d_77">
      <path d="M 318.199042 348.856702
L 529.240958 348.856702
" clip-path="url(#p081f7e11fc)" style="fill: none; stroke: #eeeeee; stroke-width: 0.7; stroke-linecap: square"/>
     </g>
     <g id="line2d_78">
      <g>
       <use xlink:href="#ma342f3aa1d" x="318.199042" y="348.856702" style="stroke: #000000; stroke-width: 0.8"/>
      </g>
     </g>
    </g>
    <g id="ytick_19">
     <g id="line2d_79">
      <path d="M 318.199042 309.09062
L 529.240958 309.09062
" clip-path="url(#p081f7e11fc)" style="fill: none; stroke: #eeeeee; stroke-width: 0.7; stroke-linecap: square"/>
     </g>
     <g id="line2d_80">
      <g>
       <use xlink:href="#ma342f3aa1d" x="318.199042" y="309.09062" style="stroke: #000000; stroke-width: 0.8"/>
      </g>
     </g>
    </g>
    <g id="ytick_20">
     <g id="line2d_81">
      <path d="M 318.199042 269.324538
L 529.240958 269.324538
" clip-path="url(#p081f7e11fc)" style="fill: none; stroke: #eeeeee; stroke-width: 0.7; stroke-linecap: square"/>
     </g>
     <g id="line2d_82">
      <g>
       <use xlink:href="#ma342f3aa1d" x="318.199042" y="269.324538" style="stroke: #000000; stroke-width: 0.8"/>
      </g>
     </g>
    </g>
   </g>
   <g id="line2d_83">
    <path d="M 327.791856 388.622784
L 349.109222 370.494314
L 370.426587 360.35423
L 391.743952 354.370253
L 413.061317 350.031949
L 434.378683 345.603452
L 455.696048 339.834501
L 477.013413 331.531435
L 498.330778 320.384731
L 519.648144 308.476203
" clip-path="url(#p081f7e11fc)" style="fill: none; stroke-dasharray: 2.1,3.465; stroke-dashoffset: 0; stroke: #7c9db5; stroke-width: 2.1"/>
   </g>
   <g id="line2d_84">
    <path d="M 327.791856 388.622784
L 349.109222 370.48362
L 370.426587 360.339361
L 391.743952 354.297248
L 413.061317 349.826551
L 434.378683 345.278785
L 455.696048 339.2415
L 477.013413 330.160728
L 498.330778 316.813553
L 519.648144 301.853874
" clip-path="url(#p081f7e11fc)" style="fill: none; stroke: #265e83; stroke-width: 2.1; stroke-linecap: square"/>
   </g>
   <g id="line2d_85">
    <path d="M 327.791856 388.622784
L 349.109222 370.512998
L 370.426587 360.397403
L 391.743952 354.40703
L 413.061317 349.987905
L 434.378683 345.496052
L 455.696048 339.479974
L 477.013413 330.323614
L 498.330778 316.78106
L 519.648144 301.615199
" clip-path="url(#p081f7e11fc)" style="fill: none; stroke-dasharray: 7.77,3.36; stroke-dashoffset: 0; stroke: #329592; stroke-width: 2.1"/>
   </g>
   <g id="line2d_86">
    <path d="M 327.791856 388.622784
L 349.109222 377.753748
L 370.426587 372.195625
L 391.743952 368.998636
L 413.061317 366.423962
L 434.378683 363.486974
L 455.696048 359.224994
L 477.013413 352.525068
L 498.330778 342.689301
L 519.648144 331.314752
" clip-path="url(#p081f7e11fc)" style="fill: none; stroke-dasharray: 13.44,3.36,2.1,3.36; stroke-dashoffset: 0; stroke: #b87543; stroke-width: 2.1"/>
   </g>
   <g id="line2d_87">
    <path d="M 327.791856 388.622784
L 349.109222 388.601946
L 370.426587 388.60218
L 391.743952 388.608518
L 413.061317 388.605205
L 434.378683 388.622038
L 455.696048 388.629207
L 477.013413 388.634642
L 498.330778 388.603583
L 519.648144 388.599868
" clip-path="url(#p081f7e11fc)" style="fill: none; stroke-dasharray: 5.6,4.2; stroke-dashoffset: 0; stroke: #888888; stroke-width: 1.4"/>
   </g>
   <g id="patch_15">
    <path d="M 318.199042 396.576
L 318.199042 245.464889
" style="fill: none; stroke: #000000; stroke-width: 0.8; stroke-linejoin: miter; stroke-linecap: square"/>
   </g>
   <g id="patch_16">
    <path d="M 318.199042 396.576
L 529.240958 396.576
" style="fill: none; stroke: #000000; stroke-width: 0.8; stroke-linejoin: miter; stroke-linecap: square"/>
   </g>
   <g id="text_46">
    <text style="font-weight: 700; font-size: 12px; font-family: 'Microsoft YaHei', 'DejaVu Sans', sans-serif; text-anchor: start" x="290.763593" y="239.420444" transform="rotate(-0 290.763593 239.420444)">e</text>
   </g>
   <g id="text_47">
    <text style="font-size: 11px; font-family: 'Microsoft YaHei', 'DejaVu Sans', sans-serif; text-anchor: start" x="318.199042" y="239.464889" transform="rotate(-0 318.199042 239.464889)">随机图 · 256 节点</text>
   </g>
  </g>
  <g id="axes_6">
   <g id="patch_17">
    <path d="M 565.118084 396.576
L 776.16 396.576
L 776.16 245.464889
L 565.118084 245.464889
z
" style="fill: #ffffff"/>
   </g>
   <g id="matplotlib.axis_11">
    <g id="xtick_23">
     <g id="line2d_88">
      <g>
       <use xlink:href="#me727ba9f2e" x="609.59386" y="396.576" style="stroke: #000000; stroke-width: 0.8"/>
      </g>
     </g>
     <g id="text_48">
      <text style="font-size: 10px; font-family: 'Microsoft YaHei', 'DejaVu Sans', sans-serif; text-anchor: middle" x="609.59386" y="411.56975" transform="rotate(-0 609.59386 411.56975)">3</text>
     </g>
    </g>
    <g id="xtick_24">
     <g id="line2d_89">
      <g>
       <use xlink:href="#me727ba9f2e" x="661.918302" y="396.576" style="stroke: #000000; stroke-width: 0.8"/>
      </g>
     </g>
     <g id="text_49">
      <text style="font-size: 10px; font-family: 'Microsoft YaHei', 'DejaVu Sans', sans-serif; text-anchor: middle" x="661.918302" y="411.56975" transform="rotate(-0 661.918302 411.56975)">6</text>
     </g>
    </g>
    <g id="xtick_25">
     <g id="line2d_90">
      <g>
       <use xlink:href="#me727ba9f2e" x="714.242744" y="396.576" style="stroke: #000000; stroke-width: 0.8"/>
      </g>
     </g>
     <g id="text_50">
      <text style="font-size: 10px; font-family: 'Microsoft YaHei', 'DejaVu Sans', sans-serif; text-anchor: middle" x="714.242744" y="411.56975" transform="rotate(-0 714.242744 411.56975)">9</text>
     </g>
    </g>
    <g id="xtick_26">
     <g id="line2d_91">
      <g>
       <use xlink:href="#me727ba9f2e" x="766.567186" y="396.576" style="stroke: #000000; stroke-width: 0.8"/>
      </g>
     </g>
     <g id="text_51">
      <text style="font-size: 10px; font-family: 'Microsoft YaHei', 'DejaVu Sans', sans-serif; text-anchor: middle" x="766.567186" y="411.56975" transform="rotate(-0 766.567186 411.56975)">12</text>
     </g>
    </g>
    <g id="text_52">
     <text style="font-size: 10px; font-family: 'Microsoft YaHei', 'DejaVu Sans', sans-serif; text-anchor: middle" x="670.639042" y="426.049438" transform="rotate(-0 670.639042 426.049438)">图最短距离（步数）</text>
    </g>
   </g>
   <g id="matplotlib.axis_12">
    <g id="ytick_21">
     <g id="line2d_92">
      <path d="M 565.118084 388.622784
L 776.16 388.622784
" clip-path="url(#p6174478832)" style="fill: none; stroke: #eeeeee; stroke-width: 0.7; stroke-linecap: square"/>
     </g>
     <g id="line2d_93">
      <g>
       <use xlink:href="#ma342f3aa1d" x="565.118084" y="388.622784" style="stroke: #000000; stroke-width: 0.8"/>
      </g>
     </g>
    </g>
    <g id="ytick_22">
     <g id="line2d_94">
      <path d="M 565.118084 348.856702
L 776.16 348.856702
" clip-path="url(#p6174478832)" style="fill: none; stroke: #eeeeee; stroke-width: 0.7; stroke-linecap: square"/>
     </g>
     <g id="line2d_95">
      <g>
       <use xlink:href="#ma342f3aa1d" x="565.118084" y="348.856702" style="stroke: #000000; stroke-width: 0.8"/>
      </g>
     </g>
    </g>
    <g id="ytick_23">
     <g id="line2d_96">
      <path d="M 565.118084 309.09062
L 776.16 309.09062
" clip-path="url(#p6174478832)" style="fill: none; stroke: #eeeeee; stroke-width: 0.7; stroke-linecap: square"/>
     </g>
     <g id="line2d_97">
      <g>
       <use xlink:href="#ma342f3aa1d" x="565.118084" y="309.09062" style="stroke: #000000; stroke-width: 0.8"/>
      </g>
     </g>
    </g>
    <g id="ytick_24">
     <g id="line2d_98">
      <path d="M 565.118084 269.324538
L 776.16 269.324538
" clip-path="url(#p6174478832)" style="fill: none; stroke: #eeeeee; stroke-width: 0.7; stroke-linecap: square"/>
     </g>
     <g id="line2d_99">
      <g>
       <use xlink:href="#ma342f3aa1d" x="565.118084" y="269.324538" style="stroke: #000000; stroke-width: 0.8"/>
      </g>
     </g>
    </g>
   </g>
   <g id="line2d_100">
    <path d="M 574.710898 388.622784
L 592.152379 370.480947
L 609.59386 360.446847
L 627.03534 354.818391
L 644.476821 351.235245
L 661.918302 348.060606
L 679.359782 344.070042
L 696.801263 338.157484
L 714.242744 329.501466
L 731.684224 317.76354
L 749.125705 304.713878
L 766.567186 292.930765
" clip-path="url(#p6174478832)" style="fill: none; stroke-dasharray: 2.1,3.465; stroke-dashoffset: 0; stroke: #7c9db5; stroke-width: 2.1"/>
   </g>
   <g id="line2d_101">
    <path d="M 574.710898 388.622784
L 592.152379 370.51474
L 609.59386 360.545711
L 627.03534 354.94942
L 644.476821 351.369273
L 661.918302 348.233854
L 679.359782 344.292403
L 696.801263 338.406564
L 714.242744 329.756149
L 731.684224 317.804124
L 749.125705 304.475194
L 766.567186 293.160712
" clip-path="url(#p6174478832)" style="fill: none; stroke: #265e83; stroke-width: 2.1; stroke-linecap: square"/>
   </g>
   <g id="line2d_102">
    <path d="M 574.710898 388.622784
L 592.152379 370.511245
L 609.59386 360.530741
L 627.03534 354.945906
L 644.476821 351.363411
L 661.918302 348.213174
L 679.359782 344.260324
L 696.801263 338.355585
L 714.242744 329.681916
L 731.684224 317.761548
L 749.125705 304.258338
L 766.567186 291.891555
" clip-path="url(#p6174478832)" style="fill: none; stroke-dasharray: 7.77,3.36; stroke-dashoffset: 0; stroke: #329592; stroke-width: 2.1"/>
   </g>
   <g id="line2d_103">
    <path d="M 574.710898 388.622784
L 592.152379 377.725294
L 609.59386 372.256801
L 627.03534 369.300647
L 644.476821 367.29105
L 661.918302 365.307111
L 679.359782 362.514409
L 696.801263 358.136879
L 714.242744 351.650901
L 731.684224 342.776191
L 749.125705 332.82159
L 766.567186 324.068602
" clip-path="url(#p6174478832)" style="fill: none; stroke-dasharray: 13.44,3.36,2.1,3.36; stroke-dashoffset: 0; stroke: #b87543; stroke-width: 2.1"/>
   </g>
   <g id="line2d_104">
    <path d="M 574.710898 388.622784
L 592.152379 388.619422
L 609.59386 388.622648
L 627.03534 388.625702
L 644.476821 388.622372
L 661.918302 388.624948
L 679.359782 388.625418
L 696.801263 388.621991
L 714.242744 388.632427
L 731.684224 388.642241
L 749.125705 388.624702
L 766.567186 388.483187
" clip-path="url(#p6174478832)" style="fill: none; stroke-dasharray: 5.6,4.2; stroke-dashoffset: 0; stroke: #888888; stroke-width: 1.4"/>
   </g>
   <g id="patch_18">
    <path d="M 565.118084 396.576
L 565.118084 245.464889
" style="fill: none; stroke: #000000; stroke-width: 0.8; stroke-linejoin: miter; stroke-linecap: square"/>
   </g>
   <g id="patch_19">
    <path d="M 565.118084 396.576
L 776.16 396.576
" style="fill: none; stroke: #000000; stroke-width: 0.8; stroke-linejoin: miter; stroke-linecap: square"/>
   </g>
   <g id="text_53">
    <text style="font-weight: 700; font-size: 12px; font-family: 'Microsoft YaHei', 'DejaVu Sans', sans-serif; text-anchor: start" x="537.682635" y="239.420444" transform="rotate(-0 537.682635 239.420444)">f</text>
   </g>
   <g id="text_54">
    <text style="font-size: 11px; font-family: 'Microsoft YaHei', 'DejaVu Sans', sans-serif; text-anchor: start" x="565.118084" y="239.464889" transform="rotate(-0 565.118084 239.464889)">随机图 · 512 节点</text>
   </g>
  </g>
  <g id="legend_1">
   <g id="line2d_105">
    <path d="M 211.886719 451.790375
L 221.886719 451.790375
L 231.886719 451.790375
" style="fill: none; stroke-dasharray: 2.1,3.465; stroke-dashoffset: 0; stroke: #7c9db5; stroke-width: 2.1"/>
   </g>
   <g id="text_55">
    <text style="font-size: 10px; font-family: 'Microsoft YaHei', 'DejaVu Sans', sans-serif; text-anchor: start" x="239.886719" y="455.290375" transform="rotate(-0 239.886719 455.290375)">局部更新 · 128 维</text>
   </g>
   <g id="line2d_106">
    <path d="M 211.886719 467.270062
L 221.886719 467.270062
L 231.886719 467.270062
" style="fill: none; stroke: #265e83; stroke-width: 2.1; stroke-linecap: square"/>
   </g>
   <g id="text_56">
    <text style="font-size: 10px; font-family: 'Microsoft YaHei', 'DejaVu Sans', sans-serif; text-anchor: start" x="239.886719" y="470.770062" transform="rotate(-0 239.886719 470.770062)">局部更新 · 1000 维</text>
   </g>
   <g id="line2d_107">
    <path d="M 344.628906 451.790375
L 354.628906 451.790375
L 364.628906 451.790375
" style="fill: none; stroke-dasharray: 7.77,3.36; stroke-dashoffset: 0; stroke: #329592; stroke-width: 2.1"/>
   </g>
   <g id="text_57">
    <text style="font-size: 10px; font-family: 'Microsoft YaHei', 'DejaVu Sans', sans-serif; text-anchor: start" x="372.628906" y="455.290375" transform="rotate(-0 372.628906 455.290375)">局部更新 · 2048 维</text>
   </g>
   <g id="line2d_108">
    <path d="M 344.628906 467.270062
L 354.628906 467.270062
L 364.628906 467.270062
" style="fill: none; stroke-dasharray: 13.44,3.36,2.1,3.36; stroke-dashoffset: 0; stroke: #b87543; stroke-width: 2.1"/>
   </g>
   <g id="text_58">
    <text style="font-size: 10px; font-family: 'Microsoft YaHei', 'DejaVu Sans', sans-serif; text-anchor: start" x="372.628906" y="470.770062" transform="rotate(-0 372.628906 470.770062)">完整梯度 · 1000 维</text>
   </g>
   <g id="line2d_109">
    <path d="M 477.371094 451.790375
L 487.371094 451.790375
L 497.371094 451.790375
" style="fill: none; stroke-dasharray: 5.6,4.2; stroke-dashoffset: 0; stroke: #888888; stroke-width: 1.4"/>
   </g>
   <g id="text_59">
    <text style="font-size: 10px; font-family: 'Microsoft YaHei', 'DejaVu Sans', sans-serif; text-anchor: start" x="505.371094" y="455.290375" transform="rotate(-0 505.371094 455.290375)">学习前 · 1000 维</text>
   </g>
  </g>
 </g>
 <defs>
  <clipPath id="pa7670d76a2">
   <rect x="71.28" y="29.376" width="211.041916" height="151.111111"/>
  </clipPath>
  <clipPath id="p0fe44217a4">
   <rect x="318.199042" y="29.376" width="211.041916" height="151.111111"/>
  </clipPath>
  <clipPath id="p8680f54a26">
   <rect x="565.118084" y="29.376" width="211.041916" height="151.111111"/>
  </clipPath>
  <clipPath id="p1c0d2fc64c">
   <rect x="71.28" y="245.464889" width="211.041916" height="151.111111"/>
  </clipPath>
  <clipPath id="p081f7e11fc">
   <rect x="318.199042" y="245.464889" width="211.041916" height="151.111111"/>
  </clipPath>
  <clipPath id="p6174478832">
   <rect x="565.118084" y="245.464889" width="211.041916" height="151.111111"/>
  </clipPath>
 </defs>
</svg>
