<?xml version="1.0" encoding="utf-8" standalone="no"?>
<!DOCTYPE svg PUBLIC "-//W3C//DTD SVG 1.1//EN"
  "http://www.w3.org/Graphics/SVG/1.1/DTD/svg11.dtd">
<svg xmlns:xlink="http://www.w3.org/1999/xlink" width="367.2pt" height="367.2pt" viewBox="0 0 367.2 367.2" xmlns="http://www.w3.org/2000/svg" version="1.1">
 <metadata>
  <rdf:RDF xmlns:dc="http://purl.org/dc/elements/1.1/" xmlns:cc="http://creativecommons.org/ns#" xmlns:rdf="http://www.w3.org/1999/02/22-rdf-syntax-ns#">
   <cc:Work>
    <dc:type rdf:resource="http://purl.org/dc/dcmitype/StillImage"/>
    <dc:date>2026-09-15T08:43:18.365997</dc:date>
    <dc:format>image/svg+xml</dc:format>
    <dc:creator>
     <cc:Agent>
      <dc:title>Matplotlib v3.10.6, https://matplotlib.org/</dc:title>
     </cc:Agent>
    </dc:creator>
   </cc:Work>
  </rdf:RDF>
 </metadata>
 <defs>
  <style type="text/css">*{stroke-linejoin: round; stroke-linecap: butt}</style>
 </defs>
 <g id="figure_1">
  <g id="patch_1">
   <path d="M 0 367.2
L 367.2 367.2
L 367.2 0
L 0 0
z
" style="fill: #ffffff"/>
  </g>
  <g id="axes_1">
   <g id="LineCollection_1">
    <path d="M 134.60456 288.083844
L 113.133469 283.379633
" clip-path="url(#pfd0b9d2095)" style="fill: none; stroke: #242424; stroke-opacity: 0.88; stroke-width: 1.15"/>
    <path d="M 134.60456 288.083844
L 135.942639 264.956267
" clip-path="url(#pfd0b9d2095)" style="fill: none; stroke: #242424; stroke-opacity: 0.88; stroke-width: 1.15"/>
    <path d="M 134.60456 288.083844
L 152.429131 300.315284
" clip-path="url(#pfd0b9d2095)" style="fill: none; stroke: #242424; stroke-opacity: 0.88; stroke-width: 1.15"/>
    <path d="M 113.133469 283.379633
L 130.076546 309.744
" clip-path="url(#pfd0b9d2095)" style="fill: none; stroke: #242424; stroke-opacity: 0.88; stroke-width: 1.15"/>
    <path d="M 113.133469 283.379633
L 113.372519 257.705077
" clip-path="url(#pfd0b9d2095)" style="fill: none; stroke: #242424; stroke-opacity: 0.88; stroke-width: 1.15"/>
    <path d="M 130.076546 309.744
L 110.693724 305.007541
" clip-path="url(#pfd0b9d2095)" style="fill: none; stroke: #242424; stroke-opacity: 0.88; stroke-width: 1.15"/>
    <path d="M 130.076546 309.744
L 152.429131 300.315284
" clip-path="url(#pfd0b9d2095)" style="fill: none; stroke: #242424; stroke-opacity: 0.88; stroke-width: 1.15"/>
    <path d="M 110.693724 305.007541
L 135.942639 264.956267
" clip-path="url(#pfd0b9d2095)" style="fill: none; stroke: #242424; stroke-opacity: 0.88; stroke-width: 1.15"/>
    <path d="M 135.942639 264.956267
L 113.372519 257.705077
" clip-path="url(#pfd0b9d2095)" style="fill: none; stroke: #242424; stroke-opacity: 0.88; stroke-width: 1.15"/>
    <path d="M 135.942639 264.956267
L 145.891309 228.011062
" clip-path="url(#pfd0b9d2095)" style="fill: none; stroke: #242424; stroke-opacity: 0.88; stroke-width: 1.15"/>
    <path d="M 135.942639 264.956267
L 163.45983 257.211598
" clip-path="url(#pfd0b9d2095)" style="fill: none; stroke: #242424; stroke-opacity: 0.88; stroke-width: 1.15"/>
    <path d="M 113.372519 257.705077
L 117.026026 223.341312
" clip-path="url(#pfd0b9d2095)" style="fill: none; stroke: #242424; stroke-opacity: 0.88; stroke-width: 1.15"/>
    <path d="M 117.026026 223.341312
L 137.04014 189.330268
" clip-path="url(#pfd0b9d2095)" style="fill: none; stroke: #242424; stroke-opacity: 0.88; stroke-width: 1.15"/>
    <path d="M 137.04014 189.330268
L 145.891309 228.011062
" clip-path="url(#pfd0b9d2095)" style="fill: none; stroke: #242424; stroke-opacity: 0.88; stroke-width: 1.15"/>
    <path d="M 137.04014 189.330268
L 125.225257 129.588172
" clip-path="url(#pfd0b9d2095)" style="fill: none; stroke: #242424; stroke-opacity: 0.88; stroke-width: 1.15"/>
    <path d="M 137.04014 189.330268
L 187.502342 140.874689
" clip-path="url(#pfd0b9d2095)" style="fill: none; stroke: #242424; stroke-opacity: 0.88; stroke-width: 1.15"/>
    <path d="M 145.891309 228.011062
L 166.132634 229.840111
" clip-path="url(#pfd0b9d2095)" style="fill: none; stroke: #242424; stroke-opacity: 0.88; stroke-width: 1.15"/>
    <path d="M 166.132634 229.840111
L 163.45983 257.211598
" clip-path="url(#pfd0b9d2095)" style="fill: none; stroke: #242424; stroke-opacity: 0.88; stroke-width: 1.15"/>
    <path d="M 166.132634 229.840111
L 182.769168 205.651861
" clip-path="url(#pfd0b9d2095)" style="fill: none; stroke: #242424; stroke-opacity: 0.88; stroke-width: 1.15"/>
    <path d="M 163.45983 257.211598
L 179.462179 275.063495
" clip-path="url(#pfd0b9d2095)" style="fill: none; stroke: #242424; stroke-opacity: 0.88; stroke-width: 1.15"/>
    <path d="M 179.462179 275.063495
L 194.242534 270.039563
" clip-path="url(#pfd0b9d2095)" style="fill: none; stroke: #242424; stroke-opacity: 0.88; stroke-width: 1.15"/>
    <path d="M 194.242534 270.039563
L 152.429131 300.315284
" clip-path="url(#pfd0b9d2095)" style="fill: none; stroke: #242424; stroke-opacity: 0.88; stroke-width: 1.15"/>
    <path d="M 194.242534 270.039563
L 205.649968 241.905205
" clip-path="url(#pfd0b9d2095)" style="fill: none; stroke: #242424; stroke-opacity: 0.88; stroke-width: 1.15"/>
    <path d="M 145.331085 96.618459
L 163.703904 118.953174
" clip-path="url(#pfd0b9d2095)" style="fill: none; stroke: #242424; stroke-opacity: 0.88; stroke-width: 1.15"/>
    <path d="M 145.331085 96.618459
L 124.673943 97.285143
" clip-path="url(#pfd0b9d2095)" style="fill: none; stroke: #242424; stroke-opacity: 0.88; stroke-width: 1.15"/>
    <path d="M 163.703904 118.953174
L 134.931159 116.559171
" clip-path="url(#pfd0b9d2095)" style="fill: none; stroke: #242424; stroke-opacity: 0.88; stroke-width: 1.15"/>
    <path d="M 163.703904 118.953174
L 187.502342 140.874689
" clip-path="url(#pfd0b9d2095)" style="fill: none; stroke: #242424; stroke-opacity: 0.88; stroke-width: 1.15"/>
    <path d="M 163.703904 118.953174
L 208.726616 117.546955
" clip-path="url(#pfd0b9d2095)" style="fill: none; stroke: #242424; stroke-opacity: 0.88; stroke-width: 1.15"/>
    <path d="M 134.931159 116.559171
L 125.225257 129.588172
" clip-path="url(#pfd0b9d2095)" style="fill: none; stroke: #242424; stroke-opacity: 0.88; stroke-width: 1.15"/>
    <path d="M 134.931159 116.559171
L 111.570341 109.086635
" clip-path="url(#pfd0b9d2095)" style="fill: none; stroke: #242424; stroke-opacity: 0.88; stroke-width: 1.15"/>
    <path d="M 125.225257 129.588172
L 124.673943 97.285143
" clip-path="url(#pfd0b9d2095)" style="fill: none; stroke: #242424; stroke-opacity: 0.88; stroke-width: 1.15"/>
    <path d="M 124.673943 97.285143
L 111.570341 109.086635
" clip-path="url(#pfd0b9d2095)" style="fill: none; stroke: #242424; stroke-opacity: 0.88; stroke-width: 1.15"/>
    <path d="M 187.502342 140.874689
L 192.977554 173.945075
" clip-path="url(#pfd0b9d2095)" style="fill: none; stroke: #242424; stroke-opacity: 0.88; stroke-width: 1.15"/>
    <path d="M 187.502342 140.874689
L 208.798245 135.552037
" clip-path="url(#pfd0b9d2095)" style="fill: none; stroke: #242424; stroke-opacity: 0.88; stroke-width: 1.15"/>
    <path d="M 187.502342 140.874689
L 208.726616 117.546955
" clip-path="url(#pfd0b9d2095)" style="fill: none; stroke: #242424; stroke-opacity: 0.88; stroke-width: 1.15"/>
    <path d="M 192.977554 173.945075
L 205.649968 241.905205
" clip-path="url(#pfd0b9d2095)" style="fill: none; stroke: #242424; stroke-opacity: 0.88; stroke-width: 1.15"/>
    <path d="M 192.977554 173.945075
L 208.798245 135.552037
" clip-path="url(#pfd0b9d2095)" style="fill: none; stroke: #242424; stroke-opacity: 0.88; stroke-width: 1.15"/>
    <path d="M 192.977554 173.945075
L 182.769168 205.651861
" clip-path="url(#pfd0b9d2095)" style="fill: none; stroke: #242424; stroke-opacity: 0.88; stroke-width: 1.15"/>
    <path d="M 208.798245 135.552037
L 240.797155 99.644292
" clip-path="url(#pfd0b9d2095)" style="fill: none; stroke: #242424; stroke-opacity: 0.88; stroke-width: 1.15"/>
    <path d="M 208.798245 135.552037
L 208.726616 117.546955
" clip-path="url(#pfd0b9d2095)" style="fill: none; stroke: #242424; stroke-opacity: 0.88; stroke-width: 1.15"/>
    <path d="M 240.797155 99.644292
L 256.506276 82.032072
" clip-path="url(#pfd0b9d2095)" style="fill: none; stroke: #242424; stroke-opacity: 0.88; stroke-width: 1.15"/>
    <path d="M 240.797155 99.644292
L 226.33823 88.967118
" clip-path="url(#pfd0b9d2095)" style="fill: none; stroke: #242424; stroke-opacity: 0.88; stroke-width: 1.15"/>
    <path d="M 240.797155 99.644292
L 255.253171 116.238621
" clip-path="url(#pfd0b9d2095)" style="fill: none; stroke: #242424; stroke-opacity: 0.88; stroke-width: 1.15"/>
    <path d="M 256.506276 82.032072
L 240.871252 72.144
" clip-path="url(#pfd0b9d2095)" style="fill: none; stroke: #242424; stroke-opacity: 0.88; stroke-width: 1.15"/>
    <path d="M 240.871252 72.144
L 226.33823 88.967118
" clip-path="url(#pfd0b9d2095)" style="fill: none; stroke: #242424; stroke-opacity: 0.88; stroke-width: 1.15"/>
    <path d="M 226.33823 88.967118
L 208.726616 117.546955
" clip-path="url(#pfd0b9d2095)" style="fill: none; stroke: #242424; stroke-opacity: 0.88; stroke-width: 1.15"/>
    <path d="M 255.253171 116.238621
L 239.853652 125.468204
" clip-path="url(#pfd0b9d2095)" style="fill: none; stroke: #242424; stroke-opacity: 0.88; stroke-width: 1.15"/>
    <path d="M 239.853652 125.468204
L 208.726616 117.546955
" clip-path="url(#pfd0b9d2095)" style="fill: none; stroke: #242424; stroke-opacity: 0.88; stroke-width: 1.15"/>
   </g>
   <g id="PathCollection_1">
    <defs>
     <path id="md1650f8c5f" d="M 0 3.872983
C 1.027127 3.872983 2.012324 3.464901 2.738613 2.738613
C 3.464901 2.012324 3.872983 1.027127 3.872983 0
C 3.872983 -1.027127 3.464901 -2.012324 2.738613 -2.738613
C 2.012324 -3.464901 1.027127 -3.872983 0 -3.872983
C -1.027127 -3.872983 -2.012324 -3.464901 -2.738613 -2.738613
C -3.464901 -2.012324 -3.872983 -1.027127 -3.872983 0
C -3.872983 1.027127 -3.464901 2.012324 -2.738613 2.738613
C -2.012324 3.464901 -1.027127 3.872983 0 3.872983
z
" style="stroke: #999999; stroke-width: 0.8"/>
    </defs>
    <g clip-path="url(#pfd0b9d2095)">
     <use xlink:href="#md1650f8c5f" x="134.60456" y="288.083844" style="fill: #ffffff; stroke: #999999; stroke-width: 0.8"/>
     <use xlink:href="#md1650f8c5f" x="113.133469" y="283.379633" style="fill: #ffffff; stroke: #999999; stroke-width: 0.8"/>
     <use xlink:href="#md1650f8c5f" x="130.076546" y="309.744" style="fill: #ffffff; stroke: #999999; stroke-width: 0.8"/>
     <use xlink:href="#md1650f8c5f" x="110.693724" y="305.007541" style="fill: #ffffff; stroke: #999999; stroke-width: 0.8"/>
     <use xlink:href="#md1650f8c5f" x="135.942639" y="264.956267" style="fill: #ffffff; stroke: #999999; stroke-width: 0.8"/>
     <use xlink:href="#md1650f8c5f" x="113.372519" y="257.705077" style="fill: #ffffff; stroke: #999999; stroke-width: 0.8"/>
     <use xlink:href="#md1650f8c5f" x="117.026026" y="223.341312" style="fill: #ffffff; stroke: #999999; stroke-width: 0.8"/>
     <use xlink:href="#md1650f8c5f" x="137.04014" y="189.330268" style="fill: #ffffff; stroke: #999999; stroke-width: 0.8"/>
     <use xlink:href="#md1650f8c5f" x="145.891309" y="228.011062" style="fill: #ffffff; stroke: #999999; stroke-width: 0.8"/>
     <use xlink:href="#md1650f8c5f" x="166.132634" y="229.840111" style="fill: #ffffff; stroke: #999999; stroke-width: 0.8"/>
     <use xlink:href="#md1650f8c5f" x="163.45983" y="257.211598" style="fill: #ffffff; stroke: #999999; stroke-width: 0.8"/>
     <use xlink:href="#md1650f8c5f" x="179.462179" y="275.063495" style="fill: #ffffff; stroke: #999999; stroke-width: 0.8"/>
     <use xlink:href="#md1650f8c5f" x="194.242534" y="270.039563" style="fill: #ffffff; stroke: #999999; stroke-width: 0.8"/>
     <use xlink:href="#md1650f8c5f" x="152.429131" y="300.315284" style="fill: #ffffff; stroke: #999999; stroke-width: 0.8"/>
     <use xlink:href="#md1650f8c5f" x="145.331085" y="96.618459" style="fill: #ffffff; stroke: #999999; stroke-width: 0.8"/>
     <use xlink:href="#md1650f8c5f" x="163.703904" y="118.953174" style="fill: #ffffff; stroke: #999999; stroke-width: 0.8"/>
     <use xlink:href="#md1650f8c5f" x="134.931159" y="116.559171" style="fill: #ffffff; stroke: #999999; stroke-width: 0.8"/>
     <use xlink:href="#md1650f8c5f" x="125.225257" y="129.588172" style="fill: #ffffff; stroke: #999999; stroke-width: 0.8"/>
     <use xlink:href="#md1650f8c5f" x="124.673943" y="97.285143" style="fill: #ffffff; stroke: #999999; stroke-width: 0.8"/>
     <use xlink:href="#md1650f8c5f" x="111.570341" y="109.086635" style="fill: #ffffff; stroke: #999999; stroke-width: 0.8"/>
     <use xlink:href="#md1650f8c5f" x="187.502342" y="140.874689" style="fill: #ffffff; stroke: #999999; stroke-width: 0.8"/>
     <use xlink:href="#md1650f8c5f" x="192.977554" y="173.945075" style="fill: #ffffff; stroke: #999999; stroke-width: 0.8"/>
     <use xlink:href="#md1650f8c5f" x="205.649968" y="241.905205" style="fill: #ffffff; stroke: #999999; stroke-width: 0.8"/>
     <use xlink:href="#md1650f8c5f" x="208.798245" y="135.552037" style="fill: #ffffff; stroke: #999999; stroke-width: 0.8"/>
     <use xlink:href="#md1650f8c5f" x="240.797155" y="99.644292" style="fill: #ffffff; stroke: #999999; stroke-width: 0.8"/>
     <use xlink:href="#md1650f8c5f" x="256.506276" y="82.032072" style="fill: #ffffff; stroke: #999999; stroke-width: 0.8"/>
     <use xlink:href="#md1650f8c5f" x="240.871252" y="72.144" style="fill: #ffffff; stroke: #999999; stroke-width: 0.8"/>
     <use xlink:href="#md1650f8c5f" x="226.33823" y="88.967118" style="fill: #ffffff; stroke: #999999; stroke-width: 0.8"/>
     <use xlink:href="#md1650f8c5f" x="255.253171" y="116.238621" style="fill: #ffffff; stroke: #999999; stroke-width: 0.8"/>
     <use xlink:href="#md1650f8c5f" x="182.769168" y="205.651861" style="fill: #ffffff; stroke: #999999; stroke-width: 0.8"/>
     <use xlink:href="#md1650f8c5f" x="239.853652" y="125.468204" style="fill: #ffffff; stroke: #999999; stroke-width: 0.8"/>
     <use xlink:href="#md1650f8c5f" x="208.726616" y="117.546955" style="fill: #ffffff; stroke: #999999; stroke-width: 0.8"/>
    </g>
   </g>
   <g id="PathCollection_2">
    <defs>
     <path id="m7e321572a8" d="M 0 6.22495
C 1.650876 6.22495 3.234359 5.56905 4.401704 4.401704
C 5.56905 3.234359 6.22495 1.650876 6.22495 0
C 6.22495 -1.650876 5.56905 -3.234359 4.401704 -4.401704
C 3.234359 -5.56905 1.650876 -6.22495 0 -6.22495
C -1.650876 -6.22495 -3.234359 -5.56905 -4.401704 -4.401704
C -5.56905 -3.234359 -6.22495 -1.650876 -6.22495 0
C -6.22495 1.650876 -5.56905 3.234359 -4.401704 4.401704
C -3.234359 5.56905 -1.650876 6.22495 0 6.22495
z
" style="stroke: #000000"/>
    </defs>
    <g clip-path="url(#pfd0b9d2095)">
     <use xlink:href="#m7e321572a8" x="130.076546" y="309.744" style="stroke: #000000"/>
    </g>
   </g>
   <g id="text_1">
    <text style="font-size: 13px; font-family: 'Arial', 'DejaVu Sans', sans-serif; text-anchor: start" x="79.805724" y="21.376" transform="rotate(-0 79.805724 21.376)">32 nodes</text>
   </g>
   <g id="PathCollection_3">
    <defs>
     <path id="m73ada8441c" d="M 0 -11.83216
L -2.656485 -3.656338
L -11.253052 -3.656338
L -4.298283 1.396597
L -6.954769 9.572418
L -0 4.519483
L 6.954769 9.572418
L 4.298283 1.396597
L 11.253052 -3.656338
L 2.656485 -3.656338
z
" style="stroke: #ed3e2e; stroke-width: 2"/>
    </defs>
    <g clip-path="url(#pfd0b9d2095)">
     <use xlink:href="#m73ada8441c" x="240.871252" y="72.144" style="fill: #ffffff; stroke: #ed3e2e; stroke-width: 2"/>
    </g>
   </g>
   <g id="text_2">
    <g id="patch_2">
     <path d="M 105.707015 339.616656
L 154.446077 339.616656
L 154.446077 327.871344
L 105.707015 327.871344
z
" style="fill: #ffffff"/>
    </g>
    <text style="font-size: 10px; font-family: 'Arial', 'DejaVu Sans', sans-serif; text-anchor: middle" x="130.076546" y="336.329156" transform="rotate(-0 130.076546 336.329156)">Start node</text>
   </g>
   <g id="text_3">
    <g id="patch_3">
     <path d="M 216.499377 56.016656
L 265.243127 56.016656
L 265.243127 44.271344
L 216.499377 44.271344
z
" style="fill: #ffffff"/>
    </g>
    <text style="font-size: 10px; font-family: 'Arial', 'DejaVu Sans', sans-serif; text-anchor: middle" x="240.871252" y="52.729156" transform="rotate(-0 240.871252 52.729156)">Goal node</text>
   </g>
  </g>
 </g>
 <defs>
  <clipPath id="pfd0b9d2095">
   <rect x="79.805724" y="29.376" width="207.588551" height="323.136"/>
  </clipPath>
 </defs>
</svg>
